<svg xmlns="http://www.w3.org/2000/svg" xmlns:xlink="http://www.w3.org/1999/xlink" width="328" height="169.882" viewBox="0 0 328 169.882"><defs><style>.a{fill:#f5f7fa;}.b{fill:#3f3d56;}.c,.j{fill:#2989e9;}.d{fill:#2f2e41;}.e{fill:#fff;}.e,.j{opacity:0.4;}.e,.g,.j,.k{isolation:isolate;}.f{fill:#ffb8b8;}.g{opacity:0.1;}.h{fill:#ff6584;}.i{fill:#575a88;}.k{mix-blend-mode:color;fill:url(#a);}</style><linearGradient id="a" x1="1" y1="1" x2="0" y2="1" gradientUnits="objectBoundingBox"><stop offset="0" stop-opacity="0"/><stop offset="1"/></linearGradient></defs><g transform="translate(0 -3)"><path class="a" d="M228.936,28.781A159.313,159.313,0,0,0,36.857,70.07C86.865,59.112,173.928,40.145,228.936,28.781Z"/><path class="a" d="M297.03,92.212l-32.009,15.149L293.35,86.178a159.824,159.824,0,0,0-15.468-20.354l-138.818,34.5L264.456,52.495a159.74,159.74,0,0,0-18.209-13.879L34.721,72.688A158.526,158.526,0,0,0,0,171.619H318.4a158.441,158.441,0,0,0-21.377-79.406Z"/><rect class="b" width="167.988" height="3.599" transform="translate(44.437 78.301)"/><rect class="b" width="167.988" height="3.599" transform="translate(44.437 96.296)"/><rect class="b" width="167.988" height="5.398" transform="translate(44.437 113.391)"/><rect class="b" width="104.25" height="3.733" transform="translate(70.442 171.616) rotate(-89.86)"/><rect class="b" width="104.25" height="3.733" transform="translate(180.567 171.884) rotate(-89.86)"/><path class="c" d="M324.25,54.087c-5.032,5.076-17.177,9.1-22.253,4.067s-1.161-17.212,3.871-22.288A12.941,12.941,0,0,1,324.25,54.087Z"/><path class="c" d="M302,59.918a2.144,2.144,0,0,0-1.772-1.756l1.756-1.772,1.772,1.756Z"/><path class="d" d="M302.879,59.174a2.928,2.928,0,0,1-1.9-1.872l.355-.116a2.554,2.554,0,0,0,1.661,1.632Z"/><path class="d" d="M264.355,96.3l-.265-.263L301.525,58.45l.266.263Z"/><ellipse class="e" cx="3.274" cy="2.729" rx="3.274" ry="2.729" transform="matrix(0.704, -0.71, 0.71, 0.704, 318.479, 45.294)"/><path class="c" d="M307.829,40.244c-3.362,6.307-13.842,13.647-20.148,10.284s-6.053-16.154-2.691-22.461A12.941,12.941,0,0,1,307.857,40.19l-.028.053Z"/><path class="c" d="M288.194,52.216a2.145,2.145,0,0,0-2.2-1.174l1.174-2.2,2.2,1.174Z"/><path class="d" d="M288.818,51.252a2.929,2.929,0,0,1-2.361-1.247l.307-.213a2.554,2.554,0,0,0,2.059,1.086Z"/><path class="d" d="M262.574,97.873l-.33-.176,25.071-46.75.33.176Z"/><ellipse class="e" cx="3.272" cy="2.727" rx="3.272" ry="2.727" transform="matrix(0.47, -0.883, 0.883, 0.47, 299.776, 33.478)"/><path class="c" d="M299.571,75.4c-5.031,5.076-17.177,9.1-22.253,4.067s-1.161-17.212,3.871-22.288A12.941,12.941,0,0,1,299.571,75.4Z"/><path class="c" d="M277.326,81.232a2.144,2.144,0,0,0-1.772-1.756L277.31,77.7l1.772,1.756Z"/><path class="d" d="M278.2,80.487a2.928,2.928,0,0,1-1.9-1.872l.355-.116a2.552,2.552,0,0,0,1.661,1.632Z"/><rect class="d" width="23.699" height="0.374" transform="translate(260.161 96.593) rotate(-45.237)"/><ellipse class="e" cx="3.274" cy="2.729" rx="3.274" ry="2.729" transform="matrix(0.704, -0.71, 0.71, 0.704, 293.8, 66.608)"/><path class="d" d="M246.953,20.67c-3.8-6.429-11.333-6.729-11.333-6.729S228.285,13,223.579,22.8c-4.386,9.127-10.439,17.938-.974,20.075l1.71-5.321,1.059,5.717a36.977,36.977,0,0,0,4.05.069c10.136-.327,19.789.1,19.478-3.541C248.488,34.959,250.612,26.856,246.953,20.67Z"/><path class="d" d="M238.232,161.647a22.69,22.69,0,0,0-.946,4.394c-.031,1.5.694,3.174,2.13,3.613a4.905,4.905,0,0,0,2.089.018,3.987,3.987,0,0,0,2.147-.732,3.891,3.891,0,0,0,.912-2.994,124.937,124.937,0,0,0-1.266-16.014,20.178,20.178,0,0,0-3.839,0c-1.014.466-.922,1.609-.936,2.58C238.481,155.554,238.907,158.641,238.232,161.647Z"/><path class="d" d="M214.629,161.647a22.688,22.688,0,0,1,.946,4.394c.031,1.5-.694,3.174-2.13,3.613a4.905,4.905,0,0,1-2.089.018,3.987,3.987,0,0,1-2.147-.732,3.891,3.891,0,0,1-.912-2.994,125.119,125.119,0,0,1,1.266-16.014,20.178,20.178,0,0,1,3.839,0c1.014.466.923,1.609.936,2.58C214.379,155.554,213.956,158.641,214.629,161.647Z"/><path class="f" d="M226.276,79.315a12.393,12.393,0,0,0,5.5.892,47.272,47.272,0,0,0,12.281-1.766,7.765,7.765,0,0,0,2.178-.88.858.858,0,0,0,.383-.415.94.94,0,0,0,0-.435l-.649-4.313a.517.517,0,0,0-.648-.54,97.655,97.655,0,0,0-10.538.618q-2.667.3-5.314.749c-.935.158-3.65.188-4.122,1.187-.281.594.287,1.639.431,2.217A16.226,16.226,0,0,0,226.276,79.315Z"/><path class="b" d="M234.173,78.249a27.409,27.409,0,0,1-8.689-1.759c-.122-.046-.281-.085-.365.015a.318.318,0,0,0-.056.168l-.714,5.4c-.741,5.6-2.694,11.129-3.971,16.628-.784,3.375-1.567,6.751-2.386,10.118-.834,3.429-1.705,6.853-2.807,10.206a77.785,77.785,0,0,1-13.861,25.156c-.709.86-1.484,1.851-1.338,2.956.189,1.432,1.764,2.178,3.122,2.67-1.257.555-1.179,2.538-.176,3.476a6.335,6.335,0,0,0,3.846,1.243l4.679.442a7.139,7.139,0,0,0,3.557-.268c.711-.314,1.3-.851,1.99-1.209,2.44-1.264,5.35-.031,7.945.873a31.914,31.914,0,0,0,11.268,1.756c1.6-.04,3.468-.372,4.2-1.8.282-.55.343-1.188.581-1.759a3.17,3.17,0,0,1,4.214-1.525l.033.016c1.326.714,1.963,2.3,3.22,3.131a6.96,6.96,0,0,0,3.488.825l6.87.4a2.907,2.907,0,0,0-.168-3.1,6.834,6.834,0,0,0,5.237-11.371,9.743,9.743,0,0,1-2.09-3.8c-2.235-8.371-2.423-17.171-4.481-25.588-.412-1.685-.9-3.357-1.161-5.072a58.168,58.168,0,0,1-.379-6.571,60,60,0,0,0-2.574-15.222,26.4,26.4,0,0,0-4.6-9.319,5.884,5.884,0,0,0-2.072-1.726,2.6,2.6,0,0,0-2.586.189A10.5,10.5,0,0,0,242.9,75a6.4,6.4,0,0,1-3.015,1.468C237.7,77.087,236.451,78.333,234.173,78.249Z"/><path class="f" d="M215.016,77.241c-.142.711-.3,1.419-.466,2.126q-1.457,6.342-3.013,12.661a12.389,12.389,0,0,1-.808,2.5c-.648,1.327-1.745,2.384-2.481,3.664s-1.04,3.024-.092,4.156a4.58,4.58,0,0,0,2.489,1.25,3.314,3.314,0,0,0,2.609-.094,3.357,3.357,0,0,0,1.125-2.532c.5-4.025.631-8.124,1.742-12.024.371-1.3.848-2.572,1.325-3.84l2.817-7.493a16.881,16.881,0,0,0,1.422-5.786,1.4,1.4,0,0,0-.326-1.072,1.347,1.347,0,0,0-.506-.256c-1.188-.383-4.239-.7-5.042.606-.4.642-.2,2.127-.289,2.881Q215.338,75.625,215.016,77.241Z"/><path class="f" d="M250.279,72.667q2.8,7.928,6.195,15.63a12.887,12.887,0,0,1,.716,1.879c.151.574.22,1.166.318,1.751.513,3.047,2.012,6.1,4.689,7.645a2.876,2.876,0,0,0,1.566.473,2.769,2.769,0,0,0,2.2-2.2,5.737,5.737,0,0,0,.173-2.295,1.033,1.033,0,0,0-.19-.546,1.16,1.16,0,0,0-.48-.286,7.571,7.571,0,0,1-4.127-3.1,8.732,8.732,0,0,1-.735-2.442L259,81.062c-.19-.965-.38-1.931-.642-2.878-.215-.776-.478-1.538-.74-2.3l-1.744-5.055-1.284-3.722a.547.547,0,0,0-.6-.484l-.045.007h-3.592C247.972,66.619,249.84,71.426,250.279,72.667Z"/><circle class="f" cx="8.226" cy="8.226" r="8.226" transform="translate(225.308 20.5)"/><path class="f" d="M229.216,38.719a5.722,5.722,0,0,1-1.98,1.639,27.627,27.627,0,0,1-4.385,2.278,17.076,17.076,0,0,0-4.056,1.682A7.072,7.072,0,0,0,216.29,48.1a21.1,21.1,0,0,0-.665,4.567,2.106,2.106,0,0,0,.076.946,1.942,1.942,0,0,0,1.1.923,20,20,0,0,0,7.368,1.263c5.016.193,10.036.219,15.056.244a12.539,12.539,0,0,0,5.72-.955l3.438-1.235a5.44,5.44,0,0,0,1.37-.642c1.455-1.05,1.51-3.208,1.059-4.945a5.576,5.576,0,0,0-2.1-3.4,8.419,8.419,0,0,0-2.108-.832,21.049,21.049,0,0,1-6.77-3.585,5.041,5.041,0,0,1-1.24-1.287,6.649,6.649,0,0,1-.537-3.487,1.384,1.384,0,0,0-.308-1.051,1.41,1.41,0,0,0-.834-.27,17.122,17.122,0,0,0-5.9.146c-1.2.3-1.314.371-1.266,1.542A4.48,4.48,0,0,1,229.216,38.719Z"/><path class="d" d="M245.276,20.05l-7.437-3.9-10.27,1.594-2.125,9.385,5.289-.2,1.478-3.448v3.391l2.441-.094,1.417-5.489.885,5.843,8.677-.177Z"/><path class="g" d="M236.373,55.288c-.33-4.994-6.429-5.429-6.49-5.433l.011-.187c.059,0,5.5.389,6.516,4.613.139-1.578.754-4.474,3.382-4.613l.01.187c-3.419.18-3.245,5.37-3.242,5.423Z"/><path class="h" d="M234.592,53.844,216.044,50.2a.694.694,0,0,0-.9.4.664.664,0,0,0-.036.125l-.672,1.391a8.637,8.637,0,0,0-1.04,3.483l-.413,3.1a2.729,2.729,0,0,1-.49,1.459,2.617,2.617,0,0,1-.7.522,5.931,5.931,0,0,0-1.672,1.23,1.816,1.816,0,0,0-.336,1.938c.527.992,2.027.951,2.8,1.766a2.733,2.733,0,0,1,.163,2.922,4.446,4.446,0,0,0-.6,1.891,2.219,2.219,0,0,0,1.246,1.752,5.808,5.808,0,0,0,2.17.534,33.661,33.661,0,0,0,4.794.14,5.857,5.857,0,0,0,2.344-.455,2.24,2.24,0,0,0,1.335-1.856c.022-1.322-1.48-2.367-1.29-3.675a.729.729,0,0,1,.137-.358c.257-.317.762-.187,1.155-.3a1.332,1.332,0,0,0,.743-1.6,6.776,6.776,0,0,0-.866-1.733,5.8,5.8,0,0,1-.706-3.315c1.426.349-.418,1.664-.215,3.118.5,3.569,2.1,7.65,1.458,11.2a1.133,1.133,0,0,0,.111.951,1.019,1.019,0,0,0,.481.266c2.363.741,4.87-.252,7.3-.708A28.954,28.954,0,0,1,237.482,74q3.8-.027,7.6.223a3.808,3.808,0,0,0,1.889-.19,1.28,1.28,0,0,0,.737-1.566c1.993-.038,3.869,1.217,5.855,1.049,2.141-.181,3.767-1.929,5.169-3.557a3.027,3.027,0,0,0,.812-1.381,3.605,3.605,0,0,0-.36-1.763,9.6,9.6,0,0,1-.468-1.971,1.957,1.957,0,0,1,.144-1.247c.259-.437.789-.642,1.1-1.048.619-.82.045-2.037-.766-2.668a20.937,20.937,0,0,1-2.548-1.719c-.991-1.041-1.13-2.6-1.379-4.011a7.036,7.036,0,0,0-1.419-3.474,3.168,3.168,0,0,0-3.4-1.029,10.841,10.841,0,0,0-1.053.575,8.646,8.646,0,0,1-2.195.706C242.969,51.879,238.851,54.68,234.592,53.844Z"/><path class="i" d="M227.761,156.5s-1.184,5.445-1.42,5.919,4.5,2.131,4.5,2.131l5.682-4.025s-2.367-5.208-2.367-6.155Z"/><path class="d" d="M196.746,96.554l1.657,1.894s34.328,4.261,35.038,10.89,5.682,44.8,2.841,45.743-10.18,4.5-10.18,2.6-4.735-34.853-3.788-39.588c0,0-40.957-5.208-41.9-11.127s.947-8.523.947-8.523Z"/><path class="g" d="M196.746,96.554l1.657,1.894s34.328,4.261,35.038,10.89,5.682,44.8,2.841,45.743-10.18,4.5-10.18,2.6-4.735-34.853-3.788-39.588c0,0-40.957-5.208-41.9-11.127s.947-8.523.947-8.523Z"/><path class="d" d="M227.287,161.947s-.947-2.131-1.42-1.42-2.131,9-.474,9,16.809,3.788,18.94,3.314,6.155.237,5.682-2.131a3.323,3.323,0,0,0-2.841-2.6s-8.76-5.208-9.233-7.813-3.078-1.184-3.078-1.184v1.657S229.891,164.551,227.287,161.947Z"/><path class="i" d="M207.165,156.45V161.9h9l.71-2.131-.947-5.682Z"/><path class="d" d="M169.995,101.289s0,13.968,5.682,14.441,26.042,3.078,26.042,3.078,1.184,23.2,3.314,30.777.237,8.049,2.131,8.523,9.943-1.184,9.707-2.841-1.184-43.561-1.184-43.561,2.131-9-26.279-13.258Z"/><path class="d" d="M207.875,160.243s-1.42-3.078-1.657-2.131-3.078,9.233-.237,9.943,11.837,4.5,17.756,4.262,6.629-.474,6.629-.474,1.657-2.367-.474-3.788S219,158.348,218.528,157.4s-4.025-1.657-4.025,0S209.532,162.37,207.875,160.243Z"/><path class="f" d="M207.162,96.08s9.707,4.025,6.629,6.392-9.47-2.841-9.233-3.551-.947-2.367-.947-2.367Z"/><path class="i" d="M198.642,64.357,201.72,67.2l.71,8.286,2.367,8.76s4.025,8.286,3.314,9.943a1.437,1.437,0,0,0,.421,1.987,1.5,1.5,0,0,0,.289.144l-5.445,2.131s-5.919-6.629-5.919-8.049S198.642,64.357,198.642,64.357Z"/><path class="g" d="M198.642,64.357,201.72,67.2l.71,8.286,2.367,8.76s4.025,8.286,3.314,9.943a1.437,1.437,0,0,0,.421,1.987,1.5,1.5,0,0,0,.289.144l-5.445,2.131s-5.919-6.629-5.919-8.049S198.642,64.357,198.642,64.357Z"/><path class="i" d="M201.719,67.2s-1.184,8.523-1.894,11.6-1.657,17.282-2.131,19.176-3.314,2.367-9,1.657a10.73,10.73,0,0,0-1.075-.081c-3.5-.111-7.5,1.2-11.208,2.225a28.144,28.144,0,0,1-5.947,1.17c-2.7.123-3.49-2.869-3.4-6.108.088-3.014.942-6.245,1.74-7.386,1.437-2.055.024-20.5.554-26.589h0a4.4,4.4,0,0,1,.393-1.818c1.421-1.894,10.654-6.629,11.688-6.437s9.856,5.727,9.856,5.727c2.131,0,2.062-2.311,2.062-2.311a7.6,7.6,0,0,0,4.33,3.494C200.54,62.225,201.719,67.2,201.719,67.2Z"/><path class="f" d="M185.893,97.89s15.25.486,12.579,2.3-14.509,3.469-14.746,1.1S185.893,97.89,185.893,97.89Z"/><path class="g" d="M187.625,99.55c.05.909-2.4,2.957-3.187,4.342-.438.767-3.828-.244-8.021-2.117a82.25,82.25,0,0,1-9.344-4.938c.088-3.014.942-6.245,1.74-7.387,1.437-2.055.024-20.5.554-26.589h0a2.636,2.636,0,0,1,.393-.161H172.6c9.707,4.5-1.42,23.911-1.42,23.911s14.678,12.074,16.1,12.548A.426.426,0,0,1,187.625,99.55Z"/><path class="i" d="M172.6,61.279h-2.841s-2.6.71-4.735,5.445-9.943,19.413-3.078,25.1,21.544,12.311,22.491,10.654,4.261-4.261,2.841-4.735-16.1-12.548-16.1-12.548S182.306,65.773,172.6,61.279Z"/><path class="f" d="M193.906,59.621l-3.788,3.788-5.208-2.841s-8.049-4.735-4.5-5.445c2.285-.457,2.413-3.951,2.216-6.385a22.072,22.072,0,0,0-.322-2.375s13.376-4.143,10.772,1.065a9.053,9.053,0,0,0-.814,2.547C191.465,54.657,193.906,59.621,193.906,59.621Z"/><path class="g" d="M193.078,49.348a9.053,9.053,0,0,0-.814,2.547c-1.179.713-1.967.53-3.447.53-2.2,0-3.08-2.805-4.5-4.261-.111-1.352-2.012.118-2.012.118S195.683,44.139,193.078,49.348Z"/><circle class="f" cx="9.066" cy="9.066" r="9.066" transform="translate(179.434 33.82)"/><path class="d" d="M187.106,38.673s.4-5.508,5.306-3.262,4.588-3.944,3.1-5.038-1.436-1.365-6.861-.633S172.694,31.712,176.1,42.62s6.49,8.1,6.49,8.1-2.707-9.816.036-7.946l2.743,1.87,1.447-.307Z"/><path class="i" d="M38.814,156.5s1.184,5.445,1.42,5.919-4.5,2.131-4.5,2.131l-5.682-4.025s2.368-5.208,2.368-6.155Z"/><path class="d" d="M69.828,96.554l-1.657,1.894s-34.328,4.261-35.038,10.89-5.682,44.8-2.841,45.743,10.18,4.5,10.18,2.6,4.735-34.853,3.788-39.588c0,0,40.957-5.208,41.9-11.127s-.947-8.523-.947-8.523Z"/><path class="g" d="M69.828,96.554l-1.657,1.894s-34.328,4.261-35.038,10.89-5.682,44.8-2.841,45.743,10.18,4.5,10.18,2.6,4.735-34.853,3.788-39.588c0,0,40.957-5.208,41.9-11.127s-.947-8.523-.947-8.523Z"/><path class="d" d="M39.293,161.947s.947-2.131,1.42-1.42,2.131,9,.473,9-16.813,3.787-18.943,3.31-6.155.237-5.682-2.131a3.323,3.323,0,0,1,2.841-2.6s8.76-5.208,9.233-7.813,3.078-1.184,3.078-1.184v1.657S36.684,164.551,39.293,161.947Z"/><path class="i" d="M59.412,156.45V161.9h-9l-.71-2.131.947-5.682Z"/><path class="d" d="M96.58,101.289s0,13.968-5.682,14.442-26.042,3.078-26.042,3.078-1.184,23.2-3.315,30.777-.237,8.049-2.131,8.523-9.943-1.184-9.707-2.841,1.184-43.561,1.184-43.561-2.131-9,26.279-13.258Z"/><path class="d" d="M58.7,160.243s1.421-3.078,1.657-2.131,3.078,9.233.237,9.943-11.837,4.5-17.756,4.262-6.629-.474-6.629-.474-1.657-2.367.474-3.788,10.89-9.707,11.364-10.654,4.025-1.657,4.025,0S57.044,162.37,58.7,160.243Z"/><path class="f" d="M59.412,96.08s-9.707,4.025-6.629,6.392,9.47-2.841,9.233-3.551.947-2.368.947-2.368Z"/><path class="i" d="M67.935,64.356,64.857,67.2l-.71,8.286-2.367,8.76s-4.025,8.286-3.314,9.943a1.437,1.437,0,0,1-.421,1.987,1.5,1.5,0,0,1-.289.144L63.2,98.448S69.12,91.819,69.12,90.4,67.935,64.356,67.935,64.356Z"/><path class="g" d="M67.935,64.356,64.857,67.2l-.71,8.286-2.367,8.76s-4.025,8.286-3.314,9.943a1.437,1.437,0,0,1-.421,1.987,1.5,1.5,0,0,1-.289.144L63.2,98.448S69.12,91.819,69.12,90.4,67.935,64.356,67.935,64.356Z"/><path class="i" d="M64.857,67.2s1.184,8.523,1.894,11.6,1.657,17.282,2.131,19.176,3.314,2.367,9,1.657a10.75,10.75,0,0,1,1.075-.08c3.5-.111,7.5,1.2,11.208,2.225a28.206,28.206,0,0,0,5.947,1.169c2.7.123,3.49-2.869,3.4-6.108-.088-3.014-.942-6.245-1.74-7.386-1.437-2.055-.024-20.5-.554-26.589h0a4.4,4.4,0,0,0-.393-1.818c-1.421-1.894-10.654-6.629-11.688-6.437s-9.856,5.727-9.856,5.727c-2.131,0-2.062-2.311-2.062-2.311a7.6,7.6,0,0,1-4.33,3.494C66.04,62.225,64.857,67.2,64.857,67.2Z"/><path class="f" d="M80.683,97.89s-15.25.486-12.579,2.3,14.509,3.469,14.746,1.1S80.683,97.89,80.683,97.89Z"/><path class="g" d="M78.952,99.55c-.05.909,2.4,2.957,3.187,4.342.438.767,3.828-.244,8.021-2.117A82.251,82.251,0,0,0,99.5,96.837c-.088-3.014-.942-6.245-1.74-7.387-1.437-2.055-.024-20.5-.554-26.589h0a2.636,2.636,0,0,0-.393-.161H93.976c-9.707,4.5,1.42,23.911,1.42,23.911S80.718,98.685,79.3,99.159A.426.426,0,0,0,78.952,99.55Z"/><path class="i" d="M93.976,61.279h2.841s2.6.71,4.735,5.445,9.943,19.413,3.078,25.1S83.09,104.13,82.139,102.473s-4.261-4.261-2.841-4.735S95.4,85.19,95.4,85.19,84.27,65.773,93.976,61.279Z"/><path class="f" d="M75.189,65.284l5.22,1.2,2.914-5.171s4.316-8.282.93-7c-2.18.824-4.139-2.072-5.263-4.24A21.824,21.824,0,0,1,78,47.893S64.46,51.469,69.43,54.5a9.1,9.1,0,0,1,2.04,1.729C74.627,59.779,75.189,65.284,75.189,65.284Z"/><path class="g" d="M70.445,56.131a9.109,9.109,0,0,1,2.041,1.729c1.377-.02,1.948-.593,3.2-1.378,1.862-1.163,1.126-4.011,1.558-6-.622-1.205,1.769-.966,1.769-.966S65.477,53.1,70.445,56.131Z"/><circle class="f" cx="9.066" cy="9.066" r="9.066" transform="translate(61.836 39.161)"/><path class="d" d="M69.85,43.911s-3.259-4.459-6.229.046-5.981-.914-5.3-2.627.494-1.919,5.483-4.173,14.577-6.786,17.47,4.27-1.21,10.308-1.21,10.308-2.907-9.759-4.242-6.719l-1.335,3.039-1.388.51Z"/><circle class="j" cx="9.99" cy="9.99" r="9.99" transform="translate(120.044 3)"/><circle class="j" cx="7.008" cy="7.008" r="7.008" transform="translate(104.538 10.753)"/><circle class="j" cx="7.008" cy="7.008" r="7.008" transform="translate(279.407 114.012)"/><path class="k" d="M121.07,17.39c-.84.2-1.69.42-2.53.64l-12.62,3.9A159.307,159.307,0,0,0,77.41,35.35c-4.69-3.18-17.97,2.39-19.09,5.98-.58,1.46,1.52,5.6,3.98,4.02-.03.11-.06.23-.09.35A158.818,158.818,0,0,0,36.86,70.07c8.8-1.93,18.78-4.11,29.51-6.45a9.231,9.231,0,0,0-1.57,4.22L34.72,72.69A158.525,158.525,0,0,0,0,171.62H16.66c4.6,3.07,12.78-.7,19.41,0a2.324,2.324,0,0,0,.14.22c-.89.16,10.25.92,12.6-.22,1.27,0,24.88-.01,25.36.01v-.01H164V94.12l-8.73,2.18h-5.65l12.15-4.64A26.825,26.825,0,0,0,164,93.39V51.86L98.58,62.4a5.731,5.731,0,0,0-1.67-1.09c-.48-1.11-2.33-2.05-4.46-3.37,22.96-5,47.75-10.36,71.55-15.46V12.8a159.133,159.133,0,0,0-24.02,1.11Zm19.12,82.5h.6l-1.73.43Z"/></g></svg>