<svg xmlns="http://www.w3.org/2000/svg" width="143.348" height="128" viewBox="0 0 143.348 128"><defs><style>.a,.d{fill:#f5f7fa;}.b{fill:#7ddb88;}.c,.e{fill:none;}.c,.d,.e{stroke:#30455c;stroke-linecap:round;stroke-width:2px;}.e{stroke-linejoin:round;}</style></defs><g transform="translate(0)"><path class="a" d="M164.945,261.957c4.345-25.179,32.985-41.167,60.529-33.385,24.534,6.932,47.3,26.361,60.21,46.605,62.248,85.055-132.2,121.076-122.671,9.26A154.173,154.173,0,0,1,164.945,261.957Z" transform="translate(-162.673 -226.592)"/><path class="b" d="M215.381,301.023c11.135-6.485,21.828-12.534,31.784-16.608A42.332,42.332,0,0,1,297.4,298.829c9.425,12.958,11.768,26.677,3.777,32.234-17.033,11.845-29.126,21.749-37.494,29.866a26.536,26.536,0,0,1-33.458,2.881c-8.642-5.918-17.232-12.827-23.252-20.508C196.306,329.69,200.436,309.726,215.381,301.023Z" transform="translate(-162.673 -258.592)"/><path class="c" d="M193.753,316.172l71.111-11.278h0l6.892,43.457a8,8,0,0,1-6.648,9.154L209.8,366.277a8,8,0,0,1-9.154-6.648l-6.892-43.457Zm-3.133-19.753,71.111-11.278a8,8,0,0,1,9.154,6.648l1.253,7.9a4,4,0,0,1-3.324,4.577L189.8,316.8a4,4,0,0,1-4.577-3.324l-1.253-7.9A8,8,0,0,1,190.62,296.419Zm33.049-21.441a8,8,0,1,1-6.648,9.154A8,8,0,0,1,223.669,274.978Zm5.639,35.555,8.146,51.358" transform="translate(-162.673 -258.592)"/><g transform="translate(-162.673 -258.592)"><path class="d" d="M295.769,297.55l-6.791-11.085a4,4,0,0,0-5.5-1.321l-39.468,24.179a4,4,0,0,0-1.821,2.572l-1.883,8.776a4,4,0,0,0,2.882,4.705l8.674,2.309a4,4,0,0,0,3.118-.455l39.469-24.179A4,4,0,0,0,295.769,297.55ZM249.93,320.355a2,2,0,1,1,.661-2.75A2,2,0,0,1,249.93,320.355Z"/><path class="e" d="M260.285,318.116l-5.223-8.527m2.089,3.41,3.411-2.089m-5.5-1.321,4.263-2.612m16.309,1.736-5.224-8.527m0,0,4.264-2.612m-1.652,6.875,3.411-2.089m-.8,6.353L279.9,306.1m3.411-2.09-5.224-8.527m0,0,4.263-2.612m-1.651,6.876,3.41-2.09m-.8,6.353,4.263-2.612M267.96,313.414l-5.224-8.527m2.132-1.306-2.132,1.306,2.612,4.264,2.132-1.306a2.5,2.5,0,0,0,.825-3.438h0A2.5,2.5,0,0,0,264.868,303.581Zm2.185,4.525,5.17,2.7"/></g></g></svg>