<svg xmlns="http://www.w3.org/2000/svg" width="121.858" height="128" viewBox="0 0 121.858 128"><defs><style>.a{fill:#f5f7fa;}.b{fill:#ffdf75;}.c{fill:none;stroke:#30455c;stroke-linecap:round;stroke-linejoin:round;stroke-width:2px;}</style></defs><path class="a" d="M118.922,52C111.373,22.314,85.288.886,54.668.026,38.48-.428,21.445,4.94,9.046,23.727-13.124,57.31,10.408,80.518,26.814,91.545a102.65,102.65,0,0,1,21.218,19.071c11.081,13.15,32.4,29.491,57.788,3.887C124.223,95.946,123.953,71.775,118.922,52Z" transform="translate(0 0)"/><path class="b" d="M81.965,56.132a64.146,64.146,0,0,0-8.816-8.611c-1.3-1.048-4.007-.1-5.877,1.93C60.748,56.543,55.013,62.624,49.748,68a4.226,4.226,0,0,1-5.325.77A114.864,114.864,0,0,0,27.381,58.8a5.8,5.8,0,0,0-5.885.825c-3.378,3.111-6.536,5.984-9.558,8.711-1.25,1.127-.776,2.8.958,3.775A146.7,146.7,0,0,1,29.613,82.9a2.6,2.6,0,0,1,.312,4.133c-4.451,3.975-8.778,7.636-13.17,11.236a2.482,2.482,0,0,0,.181,3.939c3.258,2.8,6.417,5.757,9.558,8.924a3.8,3.8,0,0,0,4.747.662c4.586-3.405,9.022-6.94,13.494-10.86a3.361,3.361,0,0,1,4.7.589c4.578,5.232,9.131,11.095,13.976,17.764,1.391,1.9,3.531,2.668,4.739,1.547,2.924-2.711,5.835-5.688,8.817-9.025,1.229-1.376,1.191-4.268-.08-6.26A193.591,193.591,0,0,0,63.834,87.22a4.251,4.251,0,0,1,.312-5.492c5.045-5.517,10.473-11.807,16.6-19.178C82.5,60.44,83.1,57.465,81.965,56.132Z" transform="translate(-0.661 -2.77)"/><path class="c" d="M82.334,56.923,71.686,46.274a3.765,3.765,0,0,0-5.324,0l-15.4,15.4a3.765,3.765,0,0,1-5.324,0l-15.395-15.4a3.765,3.765,0,0,0-5.324,0L14.274,56.923a3.765,3.765,0,0,0,0,5.324l15.4,15.395a3.765,3.765,0,0,1,0,5.324l-15.4,15.4a3.765,3.765,0,0,0,0,5.324l10.648,10.648a3.765,3.765,0,0,0,5.324,0l15.395-15.4a3.765,3.765,0,0,1,5.324,0l15.4,15.4a3.765,3.765,0,0,0,5.324,0l10.648-10.648a3.765,3.765,0,0,0,0-5.324l-15.4-15.4a3.765,3.765,0,0,1,0-5.324l15.4-15.395A3.765,3.765,0,0,0,82.334,56.923Z" transform="translate(-0.775 -2.657)"/></svg>